# xmcd
#
# Track frame offsets: 
#        183
#        16935
#        34733
#        58960
#        82615
#        108140
#        127868
#        165935
#        193438
#        215888
#
# Disc length: 3115 seconds
#
# Revision: 1
# Processed by: cddbd v1.5.2PL0 Copyright (c) Steve Scherf et al.
# Submitted via: ExactAudioCopy v0.90b4
#
DISCID=7d0c290a
DTITLE=BBM - Around the Next Dream
DYEAR=1994
DGENRE=Blues
TTITLE0=Waiting in the wings
TTITLE1=City of gold
TTITLE2=Where in the world
TTITLE3=Can't fool the blues
TTITLE4=High cost of loving
TTITLE5=Glory days
TTITLE6=Why does love (have to go wrong)?
TTITLE7=Naked flame
TTITLE8=I wonder why (are you so mean to me)
TTITLE9=Wrong side of town
EXTD=
EXTT0=
EXTT1=
EXTT2=
EXTT3=
EXTT4=
EXTT5=
EXTT6=
EXTT7=
EXTT8=
EXTT9=
PLAYORDER=
